<svg width="29" height="25" viewBox="0 0 29 25" fill="none" xmlns="http://www.w3.org/2000/svg">
<path d="M21.3381 0.943726V4.38804C20.4783 4.52843 19.6509 4.88276 18.8824 5.41501C17.6912 6.24009 16.5816 7.41821 15.4336 8.77129C13.1377 11.4774 10.6865 14.9089 7.56768 17.7906C7.0131 18.303 6.07397 18.5504 4.82758 18.5941C3.58119 18.6378 2.08598 18.4948 0.536865 18.4948V20.8061C1.97471 20.8061 3.47247 20.9527 4.88852 20.9031C6.30457 20.8535 7.69732 20.6238 8.80456 19.6008C12.1252 16.5327 14.6544 12.986 16.8533 10.3941C17.9528 9.0982 18.9696 8.04751 19.9026 7.40124C20.41 7.04982 20.8787 6.82581 21.3381 6.70832V10.1887L28.2719 5.56623L21.3381 0.943726ZM4.88852 4.31355C3.47247 4.26394 1.97471 4.41061 0.536865 4.41061V6.72186C2.08598 6.72186 3.58119 6.5788 4.82758 6.62255C6.07397 6.66623 7.0131 6.9114 7.56768 7.42381C9.05107 8.79442 10.3777 10.2888 11.6146 11.771C12.0865 11.1928 12.5305 10.6548 12.9847 10.0917C11.7295 8.59241 10.3594 7.05246 8.80456 5.61589C7.69732 4.59283 6.30457 4.36315 4.88852 4.31355ZM15.7361 13.4502C15.2803 14.0184 14.8631 14.5265 14.366 15.134C14.7126 15.5599 15.0955 16.0446 15.4336 16.4431C16.5816 17.7962 17.6912 18.9743 18.8824 19.7994C19.6509 20.3316 20.4783 20.686 21.3381 20.8264V24.0563L28.2719 19.4338L21.3381 14.8112V18.5084C20.8787 18.3915 20.41 18.1669 19.9026 17.8154C18.9696 17.1692 17.9528 16.1185 16.8533 14.8225C16.5122 14.4205 16.0948 13.8929 15.7361 13.4502Z" fill="#E3E3E3" fill-opacity="0.4"/>
</svg>
