<svg width="28" height="24" viewBox="0 0 28 24" fill="none" xmlns="http://www.w3.org/2000/svg">
<path d="M20.8013 0V3.44431C19.9415 3.5847 19.114 3.93904 18.3456 4.47128C17.1544 5.29637 16.0447 6.47449 14.8968 7.82757C12.6008 10.5337 10.1496 13.9652 7.03082 16.8469C6.47623 17.3593 5.5371 17.6067 4.29072 17.6504C3.04433 17.6941 1.54912 17.5511 0 17.5511V19.8623C1.43784 19.8623 2.93561 20.009 4.35166 19.9594C5.76771 19.9098 7.16045 19.6801 8.2677 18.6571C11.5883 15.5889 14.1175 12.0423 16.3165 9.45041C17.4159 8.15448 18.4327 7.10379 19.3658 6.45752C19.8731 6.1061 20.3419 5.88208 20.8013 5.76459V9.24501L27.735 4.62251L20.8013 0ZM4.35166 3.36983C2.93561 3.32021 1.43784 3.46688 0 3.46688V5.77813C1.54912 5.77813 3.04433 5.63507 4.29072 5.67882C5.5371 5.7225 6.47623 5.96767 7.03082 6.48009C8.5142 7.85069 9.84081 9.34507 11.0778 10.8272C11.5497 10.2491 11.9936 9.71103 12.4478 9.14796C11.1927 7.64868 9.82249 6.10873 8.2677 4.67216C7.16045 3.64911 5.76771 3.41943 4.35166 3.36983ZM15.1992 12.5065C14.7435 13.0747 14.3263 13.5828 13.8292 14.1903C14.1757 14.6162 14.5586 15.1008 14.8968 15.4994C16.0447 16.8525 17.1544 18.0306 18.3456 18.8557C19.114 19.3879 19.9415 19.7423 20.8013 19.8826V23.1125L27.735 18.49L20.8013 13.8675V17.5646C20.3419 17.4477 19.8732 17.2231 19.3658 16.8717C18.4327 16.2254 17.4159 15.1747 16.3165 13.8788C15.9753 13.4767 15.5579 12.9492 15.1992 12.5065Z" fill="#E3E3E3"/>
</svg>
