<svg width="32" height="25" viewBox="0 0 32 25" fill="none" xmlns="http://www.w3.org/2000/svg">
<path d="M29.07 5.88782C27.3822 4.19775 25.0364 3.14848 22.4583 3.14896H19.1301L19.8104 1.5318C19.8801 1.36644 19.8383 1.17589 19.7063 1.05502C19.5743 0.934223 19.381 0.909091 19.2221 0.992742L13.551 3.99093C13.4116 4.0639 13.3252 4.20837 13.3252 4.36499C13.3252 4.52209 13.4116 4.66657 13.551 4.73911L19.2221 7.73773C19.3801 7.82138 19.5734 7.79631 19.7063 7.67593C19.8383 7.55513 19.8802 7.36415 19.8104 7.19916L19.1292 5.58011H22.4582C24.3728 5.58108 26.0949 6.35294 27.3506 7.60715C28.6052 8.86276 29.3766 10.5854 29.3776 12.4999C29.3766 14.4145 28.6052 16.1367 27.3506 17.3928C26.095 18.6469 24.3728 19.4188 22.4582 19.4197V21.851C25.0363 21.8515 27.3821 20.8022 29.0699 19.1121C30.7605 17.4239 31.8098 15.0786 31.8088 12.5C31.8098 9.92138 30.7605 7.57607 29.07 5.88782Z" fill="#E3E3E3" fill-opacity="0.4"/>
<path d="M18.9859 20.2609L13.3148 17.2622C13.1568 17.1786 12.9635 17.2037 12.8305 17.324C12.6986 17.4448 12.6567 17.6358 12.7265 17.8008L13.4077 19.4198H10.0786C8.16413 19.4188 6.44195 18.647 5.18634 17.3928C3.93164 16.1367 3.16027 14.4146 3.15936 12.5C3.16033 10.5855 3.9317 8.86284 5.18634 7.60724C6.44195 6.35302 8.16413 5.58117 10.0786 5.5802V3.14899C7.50051 3.1485 5.15477 4.19778 3.46695 5.88785C1.77639 7.5761 0.727117 9.92141 0.728028 12.5C0.727117 15.0786 1.77639 17.4239 3.46695 19.1122C5.15471 20.8023 7.50051 21.8516 10.0786 21.8511H13.4068L12.7265 23.4682C12.6568 23.6337 12.6986 23.8242 12.8305 23.945C12.9625 24.0658 13.1559 24.0909 13.3148 24.0072L18.9859 21.0091C19.1253 20.936 19.2117 20.7916 19.2117 20.6349C19.2118 20.4779 19.1253 20.3334 18.9859 20.2609Z" fill="#E3E3E3" fill-opacity="0.4"/>
</svg>
